<svg width="57" height="27" viewBox="0 0 57 27" fill="none" xmlns="http://www.w3.org/2000/svg">
<path d="M0.16 26V8H5.56V9.134C6.16 8.618 6.844 8.216 7.612 7.928C8.38 7.64 9.19 7.496 10.042 7.496C11.242 7.496 12.346 7.772 13.354 8.324C14.362 8.864 15.178 9.59 15.802 10.502C16.438 9.59 17.254 8.864 18.25 8.324C19.258 7.772 20.356 7.496 21.544 7.496C22.84 7.496 24.016 7.814 25.072 8.45C26.128 9.074 26.968 9.914 27.592 10.97C28.228 12.026 28.546 13.202 28.546 14.498V26H23.146V16.01C23.146 15.446 23.008 14.936 22.732 14.48C22.456 14.024 22.09 13.658 21.634 13.382C21.178 13.106 20.668 12.968 20.104 12.968C19.54 12.968 19.024 13.106 18.556 13.382C18.1 13.658 17.734 14.024 17.458 14.48C17.182 14.936 17.044 15.446 17.044 16.01V26H11.644V16.01C11.644 15.446 11.506 14.936 11.23 14.48C10.966 14.024 10.6 13.658 10.132 13.382C9.676 13.106 9.166 12.968 8.602 12.968C8.05 12.968 7.54 13.106 7.072 13.382C6.616 13.658 6.25 14.024 5.974 14.48C5.698 14.936 5.56 15.446 5.56 16.01V26H0.16ZM43.8162 26.468C42.0522 26.468 40.4142 26.126 38.9022 25.442C37.4022 24.758 36.0942 23.816 34.9782 22.616C33.8622 21.404 32.9922 20.006 32.3682 18.422C31.7442 16.838 31.4322 15.152 31.4322 13.364C31.4322 11.432 31.7742 9.674 32.4582 8.09C33.1542 6.506 34.0902 5.138 35.2662 3.986C36.4542 2.822 37.7922 1.928 39.2802 1.304C40.7802 0.679999 42.3282 0.368 43.9242 0.368C45.6762 0.368 47.4042 0.775999 49.1082 1.592C50.8122 2.408 52.3482 3.728 53.7162 5.552L48.8922 8.144C48.1602 7.316 47.3562 6.71 46.4802 6.326C45.6162 5.93 44.7402 5.732 43.8522 5.732C42.9522 5.732 42.0822 5.918 41.2422 6.29C40.4022 6.662 39.6522 7.19 38.9922 7.874C38.3322 8.558 37.8042 9.374 37.4082 10.322C37.0242 11.27 36.8322 12.32 36.8322 13.472C36.8322 14.528 37.0122 15.518 37.3722 16.442C37.7442 17.366 38.2542 18.176 38.9022 18.872C39.5502 19.556 40.3002 20.096 41.1522 20.492C42.0042 20.876 42.9162 21.068 43.8882 21.068C44.4402 21.068 44.9862 20.996 45.5262 20.852C46.0782 20.696 46.6122 20.468 47.1282 20.168C47.6442 19.868 48.1302 19.484 48.5862 19.016C49.0422 18.548 49.4562 17.996 49.8282 17.36H46.4442V12.68H56.2002C56.2962 14.564 56.0382 16.34 55.4262 18.008C54.8262 19.664 53.9562 21.128 52.8162 22.4C51.6762 23.672 50.3382 24.668 48.8022 25.388C47.2662 26.108 45.6042 26.468 43.8162 26.468Z" fill="white"/>
</svg>
