<svg width="1920" height="628" viewBox="0 0 1920 628" fill="none" xmlns="http://www.w3.org/2000/svg">
<path d="M9.47453 3.1998L0 24.3185V303.981V631H1141.43H1922V577.616V329.912V196.468L1076.61 215.026L1069.62 224.626V221.426L1064.14 224.626V220.146L1058.65 224.626L1057.16 215.026L1052.17 223.346H1047.68V215.026L1043.69 221.426L1039.7 223.346L1036.71 215.026L1033.72 221.426L1031.23 213.746L1026.74 221.426L1024.25 210.547L1020.76 215.026L1013.77 220.146L1012.28 209.267L1006.79 218.866L1004.3 206.067L999.313 218.866L996.321 207.987L991.335 215.026L986.348 212.467L980.364 215.026L974.879 210.547L971.388 213.746L967.898 210.547L964.906 215.026L962.412 206.067L953.437 215.026L950.445 216.946L946.455 215.026L937.978 216.946L933.49 209.267L924.514 215.026L921.522 207.987L917.533 212.467L912.547 209.267L909.056 213.746L904.069 204.787L898.085 210.547V201.587L893.597 209.267L889.608 201.587L884.622 210.547L883.126 193.908L871.158 210.547L868.665 204.787L861.683 209.267L858.691 196.468L852.707 207.987L848.718 193.908L842.734 201.587L838.745 198.387L835.254 204.787L832.761 200.307L828.273 196.468L826.279 204.787L823.785 201.587V191.348L816.804 200.307L810.82 193.908L808.327 188.148L797.356 196.468L793.367 184.308L783.394 193.908L779.404 191.348L777.909 182.388L770.429 186.868L767.437 177.269L760.455 184.308L754.97 179.829L748.986 166.389L737.018 177.269L732.032 163.83L726.547 167.669L721.061 156.15L709.094 170.229L699.12 144.631L689.147 159.99L686.155 149.751L679.673 154.87V144.631L672.193 149.751L666.209 125.432L662.22 129.912L655.737 107.513L648.257 121.592L643.769 110.713L632.3 133.752L626.316 116.473L613.85 146.551L609.362 131.832L603.876 144.631L595.898 159.99L591.909 156.15L590.413 144.631L584.429 151.67H581.935L572.96 138.871L569.469 142.711H562.488L559.994 138.871L557.501 133.752L554.509 136.951L553.013 131.832L549.024 124.152H547.029L542.043 131.832L539.051 126.712L536.059 110.713L534.064 112.633L529.078 128.632L523.094 138.871L521.099 133.752L519.603 126.712L514.616 129.912L510.627 136.951L508.633 129.912L503.147 119.672L497.662 128.632L493.673 119.672L487.19 93.4341L474.724 121.592L470.734 116.473L461.26 112.633L454.279 99.8337L443.807 116.473L440.316 109.433L437.324 104.953L430.842 102.394L428.847 95.9939L427.351 79.9949L424.359 84.4746L415.383 97.2738L409.898 102.394L406.407 99.8337L400.922 110.713L397.93 106.873L394.44 93.4341L386.461 95.9939V84.4746L382.472 88.3144L379.48 79.9949L375.989 85.7546V79.9949L371.501 53.7566L370.504 58.2363L360.531 79.9949L350.557 102.394L347.067 85.7546L341.083 89.5943L340.086 76.1552L337.592 79.9949L328.616 95.9939L325.625 79.9949L318.643 41.5974C316.316 44.7972 311.263 51.7087 309.667 53.7566C308.072 55.8045 303.684 60.1562 301.689 62.0761L298.198 44.7972L293.212 53.7566L289.721 24.3185L285.233 35.8377L274.761 58.2363L269.775 46.717L259.303 8.31947L251.823 20.4787L240.852 47.997L238.359 56.9564L235.866 53.7566L230.879 46.717L225.394 28.7982L213.925 49.9168L212.429 47.997L201.957 66.5558L193.978 47.997L184.504 69.1156L181.013 63.9959L174.531 53.7566L171.539 39.6775L164.059 49.9168L162.563 41.5974L157.078 47.997L154.086 35.8377L151.592 47.997L146.107 53.7566L141.121 46.717V39.6775L136.134 26.8783L133.641 37.7576L130.15 44.7972H127.657L123.668 35.8377L120.676 28.7982L117.185 14.7191L112.198 0L107.212 8.31947L100.729 20.4787L99.2332 28.7982L95.2439 32.6379L92.7506 39.6775C92.0858 39.4642 90.756 38.7815 90.756 37.7576C90.756 36.7337 88.0965 31.358 86.7667 28.7982L84.7721 22.3986L79.2868 5.75963L74.7989 14.7191L68.3163 35.8377L62.8311 44.7972L60.3378 37.7576L53.8552 17.9189L51.8606 26.8783L45.8767 37.7576L44.3807 35.8377C42.5523 31.998 38.7957 23.9345 38.3968 22.3986C37.9978 20.8627 37.2332 26.025 36.9008 28.7982L31.9142 44.7972L27.4263 49.9168L23.9356 44.7972L17.9517 28.7982H20.9437L16.4558 20.4787L9.47453 3.1998Z" fill="#0E245B"/>
</svg>
