<svg width="1918" height="398" viewBox="0 0 1918 398" fill="none" xmlns="http://www.w3.org/2000/svg">
<path d="M1902.96 53.6194L1922 14.925V398H0V207L642.482 153.672L689.092 121.058L738.709 95.0778L765.271 74.0722L788.827 111.661L811.881 109.45L852.477 74.0722L862.501 102.817L902.094 117.189L919.635 102.817L934.17 121.058L964.241 72.4139L978.775 107.239L990.302 81.8111L1000.33 95.0778L1033.91 66.3333L1036.41 88.9972L1055.96 66.3333L1064.48 81.8111L1082.02 60.8056L1084.52 77.9417L1106.08 45.8806L1109.08 74.0722L1127.63 51.4083L1135.65 79.6L1154.19 48.0917L1168.72 77.9417L1188.77 66.3333L1201.8 45.8806L1211.32 54.725L1231.37 30.9556L1236.38 48.0917L1256.43 28.7444L1262.95 54.725L1267.46 45.8806L1276.48 54.725L1292.52 37.5889L1302.04 48.0917L1320.58 12.1611L1331.11 37.5889L1350.15 23.7694L1361.18 34.2722L1375.21 0L1382.73 30.9556L1407.29 10.5028V30.9556L1433.85 10.5028L1439.86 21.5583L1462.42 14.925L1472.94 30.9556L1491.48 17.6889L1497.5 39.8L1514.04 21.5583L1530.08 48.0917L1541.6 23.7694L1544.61 39.8L1558.14 28.7444V45.8806L1574.18 34.2722L1576.69 50.3028L1585.71 39.8L1598.74 44.2222L1616.28 14.925L1622.29 44.2222L1645.85 1.65833L1654.37 53.6194L1668.4 14.925L1674.92 37.0361L1692.96 21.5583L1708 44.2222L1721.53 28.7444L1732.05 53.6194L1760.12 1.65833L1776.16 37.0361L1791.19 1.65833L1803.72 37.0361L1813.24 28.7444L1820.76 53.6194L1841.31 37.0361L1861.36 53.6194L1888.92 14.925L1902.96 53.6194Z" fill="#051121"/>
</svg>
