<svg width="1920" height="583" viewBox="0 0 1920 583" fill="none" xmlns="http://www.w3.org/2000/svg">
<path d="M0 583V11.6047V0L62.0484 128.205L85.5668 109.416L113.088 134.836L128.1 76.2597L170.633 169.098L183.143 144.783L217.67 201.149L260.203 109.416L320.75 242.042L351.775 176.282L411.321 287.908L456.857 242.042L495.387 266.909L514.401 226.569L558.436 250.331L597.466 176.282L636.997 266.909L652.009 242.042L693.541 296.197L717.06 242.042L784.112 302.276L798.623 266.909L831.649 321.064L874.683 250.331L919.217 329.354L954.245 311.67L979.765 329.354L993.776 302.276L1020.3 329.354L1068.33 250.331L1089.35 302.276L1117.37 266.909L1130.88 311.67L1184.42 242.042L1240.97 344.274L1282.5 287.908L1331.04 360.852L1345.05 337.09L1360.06 360.852L1396.09 287.908L1432.62 353.668L1450.63 321.064L1470.65 360.852L1484.66 329.354L1500.67 337.09L1531.2 302.276L1577.23 360.852L1587.74 329.354L1601.75 353.668L1635.78 311.67L1668.8 353.668L1713.34 266.909L1743.36 360.852L1762.38 329.354L1780.39 360.852L1832.93 266.909L1867.96 360.852L1880.47 329.354L1890.48 344.274L1922 302.276V583H0Z" fill="#030912"/>
</svg>
