<svg width="1918" height="690" viewBox="0 0 1918 690" fill="none" xmlns="http://www.w3.org/2000/svg">
<path d="M9.17685 176.809L0 188.965V693H1920V0L1915.92 10.4981L1912.86 14.3658L1910.31 15.4708L1907.25 10.4981L1903.18 12.7082L1898.08 8.84047L1894 10.4981L1890.43 15.4708L1888.39 10.4981L1883.8 3.8677L1881.25 10.4981L1874.63 17.1284L1868 8.84047L1866.47 10.4981L1856.78 24.3113L1851.68 22.6537L1847.6 27.0739L1840.98 29.284L1834.86 25.9688L1829.76 32.0467L1828.23 30.9416C1825.68 28.5473 1820.28 23.5377 1819.05 22.6537C1817.83 21.7696 1817.53 24.4954 1817.53 25.9688L1814.47 32.0467L1808.86 39.7821L1806.31 41.9922H1800.7L1794.58 44.2023L1789.48 48.07L1784.39 44.2023L1782.35 48.07L1778.27 45.8599L1772.15 44.2023L1763.99 50.8327L1758.39 39.7821L1755.33 45.8599L1751.25 54.1478L1746.66 58.5681L1745.64 56.3579L1742.07 58.5681H1737.99L1733.91 55.2529L1731.36 58.5681L1727.8 56.3579L1723.72 61.3307L1715.56 45.8599L1713.01 48.07L1703.32 62.4358L1696.7 54.1478L1689.56 50.8327L1686.5 62.4358L1682.42 53.0428L1674.26 62.4358L1670.19 55.2529L1664.07 62.4358L1655.91 49.7276L1649.79 68.5136L1645.71 64.0934L1640.11 69.6187L1631.95 61.3307L1628.89 68.5136L1624.81 72.3813L1615.63 61.3307L1614.11 65.7509L1611.05 75.6965L1603.4 85.642L1601.87 83.9844L1597.79 79.5642L1594.22 81.7743L1589.63 78.4591L1587.08 83.9844L1585.55 79.5642L1580.46 81.7743L1576.89 85.642L1571.28 91.1673L1568.73 87.2996L1563.12 94.4825L1560.57 91.1673L1553.95 81.7743L1550.38 85.642L1545.79 92.2723L1539.16 97.2451L1537.63 93.3774L1530.49 83.9844L1529.47 88.9572L1524.89 102.218L1523.36 98.3502L1520.3 94.4825L1514.18 95.5875L1509.59 91.1673L1506.53 95.5875L1502.96 94.4825L1497.87 87.2996L1490.22 79.5642L1487.67 83.9844L1480.53 93.3774L1472.37 102.218L1466.77 111.058L1462.69 108.848L1459.63 114.926L1456.06 111.058L1453.51 114.926L1447.9 120.451L1444.84 118.241L1440.25 112.716L1436.69 109.953L1429.55 120.451L1422.92 132.607L1418.33 129.292L1410.69 125.977L1404.57 132.607L1393.86 150.288L1391.82 152.498L1389.78 149.183L1383.66 142L1381.63 143.658L1378.06 149.183L1376.02 145.868L1368.88 137.58V142L1365.82 149.183L1357.66 164.101L1356.13 160.233L1352.57 153.603L1351.55 157.471L1347.98 165.759L1344.41 161.891L1341.35 150.288L1334.21 160.233L1332.17 157.471L1325.03 156.366L1321.47 160.233L1317.9 153.603L1315.86 159.128L1311.78 164.101L1309.23 168.521L1291.39 142L1276.6 165.759L1272.01 157.471L1269.46 168.521L1265.39 165.759L1258.76 161.891L1245.5 187.86L1240.91 186.755L1236.83 191.175L1232.25 189.517L1226.13 195.595L1221.54 189.517L1216.44 193.938L1209.81 196.7L1205.74 195.595L1199.62 189.517V193.938L1194.52 200.016L1186.87 193.938V201.673L1183.81 200.016L1163.93 181.782L1159.85 191.175L1147.11 211.066L1138.44 214.381L1131.3 215.486L1127.73 219.354L1125.69 225.432L1121.61 226.537L1106.83 211.066L1095.1 245.323L1089.5 246.981L1082.87 243.665L1079.3 250.296H1075.73L1067.06 243.665L1062.98 254.163L1057.38 259.136L1049.73 256.926L1045.65 263.556L1040.55 267.977L1027.81 262.451L1023.73 267.977L1018.12 260.241L1005.88 274.607L997.217 263.556L980.903 284H974.785L966.118 289.525L961.529 284L953.882 291.183L946.745 286.21L938.078 296.708L922.783 284L904.429 305.549L898.311 296.708L891.174 302.233L889.134 300.576L883.016 302.233L879.448 296.708L872.31 305.549L865.173 295.603L855.486 303.891L850.898 302.233L844.27 289.525L837.642 295.603L828.975 284L817.249 291.183L812.661 288.42L805.013 291.183L800.425 286.763L794.817 288.42L792.268 284L785.64 291.183L779.522 280.685L770.855 289.525L766.776 278.475L759.639 286.763L755.56 280.685L749.442 269.082L740.266 284L735.677 288.42L726.5 286.763L725.481 276.817L720.892 279.58L711.715 288.42L704.578 273.502L687.244 288.42L677.557 275.712L670.42 282.342L664.302 271.844L656.654 282.342L651.046 278.475L641.36 260.794L635.751 270.739L630.653 267.977L620.457 253.611L612.299 256.926L609.75 251.953L601.593 253.611L598.534 248.638L593.436 253.611L588.338 242.008L584.259 247.533L563.356 273.502L555.709 255.821L541.944 270.739L536.845 260.794H529.198L526.139 255.821L516.452 260.794V253.611L511.864 254.716L505.236 263.556L499.628 255.821L493.001 232.062L477.706 253.611L474.647 251.953L471.078 243.113L460.372 244.218L446.606 256.926L443.038 247.533L442.018 239.245L417.037 265.214L412.448 262.451L409.899 255.821H398.173L395.624 250.296H384.408L380.839 247.533L371.152 256.926L361.466 234.272L344.642 255.821L335.465 245.323L325.778 251.953L320.68 247.533L314.562 251.953L307.424 228.195L292.13 247.533L288.561 240.35L282.953 244.218L279.894 235.93L270.207 240.35L261.54 230.405L252.873 244.218L238.598 232.615L223.813 240.35L213.107 232.615L204.95 235.93L201.891 228.195L196.283 232.615L186.596 202.778L172.321 224.879L168.242 214.934L162.634 224.879L151.418 198.358L141.221 214.934L139.182 207.751L121.848 221.012L118.789 214.934L113.181 221.012L104.514 204.988L99.4158 217.696C96.5268 215.486 90.7488 210.735 90.7488 209.409C90.7488 208.082 76.1338 216.591 68.8263 221.012L65.7674 209.409L58.12 214.934L48.9432 198.358L38.2369 214.934L29.5698 193.938L21.9225 202.778V193.938L16.8242 198.358L9.17685 176.809Z" fill="#091B44"/>
</svg>
