<svg width="1918" height="573" viewBox="0 0 1918 573" fill="none" xmlns="http://www.w3.org/2000/svg">
<path d="M1905.38 25.2038L1920 5.53255V576H1068.5H0V443.12V347.49L384.384 248.35L392.955 255.112L410.096 239.744L413.625 257.571L428.245 235.441L433.79 255.112L440.848 245.276L452.948 255.112L462.022 248.35L469.08 257.571L475.634 245.276L481.684 257.571L490.254 245.276L498.32 262.489L529.073 266.792L542.685 257.571L552.264 271.71L628.389 245.276L637.968 257.571L648.555 237.285L661.158 251.424L677.291 226.22L688.382 240.359L695.944 226.22L703.002 240.359L714.093 237.285L724.176 240.359L734.763 232.982L743.333 251.424L775.598 217.614V237.285L785.681 226.22L789.21 240.359L800.301 229.908L812.905 237.285L822.484 229.908L829.037 240.359L841.137 222.531L851.724 237.285L860.798 222.531L870.881 245.276L904.154 207.163L920.791 232.982L933.899 217.614L947.006 232.982L956.585 211.466L975.743 232.982L1003.47 211.466L1009.02 232.982L1036.74 193.025L1048.34 211.466L1075.06 179.501L1078.08 193.025L1110.85 151.223L1127.99 179.501L1133.54 173.353L1143.62 157.37L1151.69 173.353L1167.82 151.223L1174.88 169.05L1191.52 151.223L1209.16 173.353L1228.32 147.535L1241.93 169.05L1271.67 119.872L1284.78 151.223L1302.93 129.708L1305.96 151.223L1326.63 114.339L1335.2 134.011L1349.82 108.807L1360.4 142.617L1383.09 122.946L1386.62 151.223L1406.28 127.249L1412.83 147.535L1439.05 119.872L1449.13 154.297L1458.71 137.699L1468.79 147.535L1485.93 127.249L1503.07 151.223L1528.28 102.045L1544.92 119.872L1560.55 87.2914L1576.18 108.807L1610.96 67.0053L1632.64 114.339L1643.23 87.2914L1652.8 96.5123L1692.13 43.031L1713.3 87.2914L1729.94 67.0053L1747.58 87.2914L1761.2 67.0053L1772.29 87.2914L1792.96 55.9402L1813.63 71.3084L1852.95 5.53255L1863.03 40.572L1894.29 0L1905.38 25.2038Z" fill="#05182E"/>
</svg>
